<?xml version="1.0" encoding="UTF-8" standalone="no"?>
<!-- Created with Inkscape (http://www.inkscape.org/) -->

<svg
   xmlns:dc="http://purl.org/dc/elements/1.1/"
   xmlns:cc="http://creativecommons.org/ns#"
   xmlns:rdf="http://www.w3.org/1999/02/22-rdf-syntax-ns#"
   xmlns:svg="http://www.w3.org/2000/svg"
   xmlns="http://www.w3.org/2000/svg"
   version="1.1"
   width="58.5"
   height="55"
   viewBox="0 0 58.5 55"
   id="svg2"
   xml:space="preserve"><metadata
     id="metadata25"><rdf:RDF><cc:Work
         rdf:about=""><dc:format>image/svg+xml</dc:format><dc:type
           rdf:resource="http://purl.org/dc/dcmitype/StillImage" /><dc:title></dc:title></cc:Work></rdf:RDF></metadata><defs
     id="defs23">
	
	
	
	

	
</defs><g
     id="g3897"><g
       id="g5"
       style="display:inline">
		<polygon
   points="8.433,32.715 1.75,34.542 29.252,52.581 56.75,34.543 50.056,32.715 50.056,2 8.433,2 "
   id="polygon7"
   style="fill:#666666;stroke:#010101;stroke-width:3.5;stroke-linejoin:round" />
	</g><g
       id="g9"
       style="display:inline">
		<g
   id="g11">
			<polygon
   points="15.204,13.812 15.204,35.189 43.041,35.189 43.041,21.577 35.281,13.812 "
   id="polygon13"
   style="fill:#ffffff;stroke:#666666;stroke-width:2.2750001" />
			<polyline
   points="35.281,13.812 35.281,21.577 43.041,21.577    "
   id="polyline15"
   style="fill:none;stroke:#666666;stroke-width:2.2750001" />
		</g>
	</g><g
       transform="matrix(0.30966602,0,0,0.30966602,20.772893,17.581559)"
       id="g3102"
       style="stroke:#666666;stroke-opacity:1;display:inline">
		<path
   d="m 51.375,27.597 c 0,0 -11.387,13.041 -24.001,13.041 -12.613,0 -23.999,-13.041 -23.999,-13.041 0,0 8.915,-11.234 16.869,-11.234 4.418,0 7.13,2.73 7.13,2.73 0,0 2.716,-2.73 7.132,-2.73 7.953,-0.001 16.869,11.234 16.869,11.234 z"
   id="path3104"
   style="fill:#ffffff;stroke:#666666;stroke-width:3.5;stroke-linecap:round;stroke-opacity:1" />
		<line
   id="line3106"
   y2="27.597"
   y1="27.597"
   x2="51.375"
   x1="3.375"
   style="fill:none;stroke:#666666;stroke-width:3.5;stroke-linecap:round;stroke-opacity:1" />
	</g></g></svg>